<?xml version="1.0" standalone="no"?>
<!DOCTYPE svg PUBLIC "-//W3C//DTD SVG 20010904//EN"
 "http://www.w3.org/TR/2001/REC-SVG-20010904/DTD/svg10.dtd">
<svg version="1.0" xmlns="http://www.w3.org/2000/svg"
 width="8000.000000pt" height="8000.000000pt" viewBox="0 0 8000.000000 8000.000000"
 preserveAspectRatio="xMidYMid meet">

<g transform="translate(0.000000,8000.000000) scale(0.100000,-0.100000)"
fill="#000000" stroke="none">
<path d="M34140 63354 c-758 -40 -1224 -89 -1835 -194 -843 -145 -1690 -374
-2465 -668 -704 -266 -1401 -631 -2090 -1093 -1677 -1124 -3203 -2809 -4513
-4984 -76 -126 -142 -231 -147 -233 -5 -2 -89 41 -187 96 -1382 768 -2963
1402 -4378 1756 -1585 396 -3175 517 -4640 351 -1146 -130 -2422 -472 -3550
-952 -1936 -824 -3632 -2094 -4879 -3653 -819 -1024 -1431 -2099 -1888 -3315
-631 -1679 -901 -3554 -762 -5300 221 -2800 1453 -5628 3524 -8095 1476 -1757
3325 -3258 5720 -4642 185 -108 618 -350 755 -423 50 -26 117 -62 150 -80 454
-246 1349 -692 1910 -952 239 -111 275 -128 445 -206 1194 -543 2555 -1107
4676 -1936 352 -137 809 -317 1015 -399 759 -303 1181 -450 1969 -688 353
-107 1668 -483 2655 -759 1900 -532 2864 -872 3825 -1351 713 -356 1137 -641
1516 -1019 455 -455 713 -925 814 -1485 32 -182 45 -418 33 -600 -6 -85 -9
-157 -7 -159 4 -5 238 -51 240 -48 0 1 36 117 79 257 219 719 546 1580 860
2265 155 337 192 415 351 735 995 2003 2330 3988 4538 6750 397 497 1538 1903
1580 1948 10 10 37 -27 136 -185 425 -682 979 -1514 1553 -2333 590 -840 1222
-1707 2797 -3835 2758 -3726 4345 -6530 5243 -9260 194 -589 407 -1368 466
-1700 22 -123 67 -314 75 -323 5 -4 237 36 244 43 2 1 -9 96 -24 211 -23 187
-25 232 -21 429 9 395 85 710 252 1050 455 924 1482 1746 3095 2474 869 393
1883 778 3450 1311 1215 413 1621 555 2139 749 573 215 931 363 1451 601 195
89 769 349 1275 577 2954 1333 4132 1898 5510 2643 2548 1378 4564 2838 6029
4365 1205 1256 2118 2530 2819 3935 886 1773 1316 3559 1283 5330 -10 575 -54
1041 -157 1655 -289 1728 -1038 3391 -2154 4785 -413 516 -904 1016 -1413
1437 -1210 1005 -2654 1747 -4209 2164 -124 33 -307 80 -407 104 -1272 306
-2646 343 -4066 109 -1996 -329 -4092 -1182 -6133 -2497 -208 -134 -619 -415
-747 -512 l-46 -34 -109 242 c-515 1138 -1302 2461 -2073 3485 -707 939 -1474
1737 -2267 2358 -531 417 -1043 741 -1625 1028 -368 182 -639 292 -1070 437
-915 305 -1858 496 -2830 574 -347 27 -567 35 -1006 35 l-432 0 -43 108 c-331
832 -713 1562 -1178 2252 -730 1085 -1657 2042 -2726 2815 -557 404 -1104 731
-1760 1055 -1613 795 -3300 1242 -5205 1376 -209 15 -1243 28 -1430 18z m1035
-2424 c1112 -36 2111 -200 3135 -515 2360 -726 4304 -2188 5454 -4104 201
-334 476 -856 459 -871 -4 -4 -104 -30 -221 -59 -1381 -335 -2714 -943 -3827
-1745 -673 -485 -1306 -1076 -1803 -1681 -1317 -1604 -2127 -3739 -2306 -6080
-48 -619 -50 -1462 -5 -2130 171 -2569 985 -5125 2535 -7961 85 -155 154 -286
154 -292 0 -6 -114 -167 -253 -359 -1502 -2066 -2271 -3167 -2972 -4253 -1181
-1830 -2034 -3429 -2671 -5008 -282 -697 -566 -1536 -740 -2179 -27 -101 -51
-183 -54 -183 -3 0 -20 62 -38 138 -197 820 -834 1620 -1797 2257 -298 196
-627 393 -960 572 -157 85 -612 314 -750 378 -882 408 -1669 713 -3266 1265
-1040 360 -1226 425 -1629 572 -648 236 -1369 525 -1715 688 -273 129 -875
407 -1495 692 -1026 471 -1514 697 -1855 856 -170 79 -339 158 -375 175 -131
60 -691 327 -900 428 -325 156 -1413 702 -1680 842 -1288 676 -2203 1214
-3215 1888 -496 331 -719 487 -1075 753 -1276 954 -2410 2040 -3349 3206
-1360 1689 -2278 3518 -2690 5365 -258 1152 -323 2242 -201 3370 185 1700 790
3318 1758 4695 473 672 1065 1320 1697 1855 1000 848 2157 1490 3470 1927 835
277 1618 436 2515 510 232 19 996 16 1280 -6 965 -72 1806 -231 2750 -520 802
-245 1549 -548 2390 -968 772 -385 1442 -778 2210 -1295 329 -222 457 -315
737 -535 117 -92 215 -164 217 -159 3 4 50 120 105 257 104 260 144 356 206
489 755 1628 1650 3061 2615 4185 432 503 919 988 1375 1368 833 696 1678
1192 2590 1522 1098 397 2365 628 3580 653 66 2 163 4 215 5 52 1 230 -3 395
-8z m12410 -7656 c972 -79 2002 -321 2772 -650 1033 -441 2004 -1210 2917
-2307 818 -983 1717 -2449 2255 -3677 43 -96 347 -826 677 -1622 329 -796 602
-1448 606 -1448 3 0 309 230 680 512 830 631 1767 1336 2033 1529 698 507
1596 1038 2416 1430 1475 703 2788 1087 4124 1206 285 25 1021 25 1285 0 604
-58 1295 -206 1914 -411 2567 -852 4514 -2781 5314 -5266 221 -687 358 -1428
403 -2178 23 -391 3 -1039 -46 -1447 -255 -2125 -1282 -4280 -2982 -6258
-1538 -1789 -3597 -3380 -6578 -5084 -944 -540 -1757 -976 -3655 -1963 -957
-497 -1306 -680 -1810 -948 -917 -488 -1525 -764 -3210 -1460 -1024 -423
-1446 -603 -2010 -860 -1003 -456 -1726 -826 -2321 -1188 -1229 -747 -2026
-1509 -2438 -2333 -85 -170 -112 -231 -171 -400 -32 -90 -49 -128 -53 -115 -3
10 -27 114 -52 229 -472 2146 -1428 4467 -2898 7040 -531 929 -1275 2141
-1992 3245 -34 52 -142 219 -240 370 -98 151 -408 626 -688 1055 -1499 2293
-2091 3238 -2754 4400 -237 414 -523 937 -523 955 0 5 132 175 293 377 1396
1753 2292 2995 3151 4371 301 484 711 1192 936 1617 29 55 67 127 85 160 127
234 400 786 537 1085 928 2020 1459 3877 1682 5880 132 1187 129 2411 -10
3535 -24 198 -80 578 -91 624 l-6 24 134 -7 c74 -4 215 -14 314 -22z m-2533
-305 c179 -888 258 -1773 245 -2739 -9 -685 -55 -1276 -148 -1925 -342 -2380
-1165 -4621 -2664 -7250 -620 -1088 -1355 -2228 -2336 -3622 -112 -158 -221
-314 -243 -345 -22 -32 -43 -58 -46 -58 -8 0 -2 -12 -137 285 -656 1443 -1107
2796 -1373 4123 -598 2988 -299 5694 863 7787 255 460 651 1029 918 1320 498
542 927 912 1497 1289 929 615 1972 1039 3157 1281 116 24 215 42 220 41 6 -1
27 -85 47 -187z"/>
</g>
</svg>
